<svg xmlns="http://www.w3.org/2000/svg" viewBox="0 0 400 250" width="400" height="250">
  <!-- Background (frosty blue gradient) -->
  <rect width="100%" height="100%" fill="url(#coldGradient)"/>
  <defs>
    <linearGradient id="coldGradient" x1="0%" y1="0%" x2="100%" y2="100%">
      <stop offset="0%" stop-color="#E6F7FF" />
      <stop offset="100%" stop-color="#B3E5FC" />
    </linearGradient>
  </defs>

  <!-- Building Structure -->
  <g id="building">
    <!-- Main structure (adjusted y-position to maintain alignment) -->
    <rect x="50" y="50" width="300" height="150" fill="#2C3E50" rx="10" ry="10"/>
    <!-- Cooling vents (top) -->
    <rect x="100" y="30" width="200" height="20" fill="#34495E" rx="5"/>
    <rect x="120" y="20" width="160" height="10" fill="#4A657D" rx="3"/>
    <!-- Frost accents -->
    <path d="M70 70 Q150 50 230 70" stroke="#B0E0E6" stroke-width="3" fill="none"/>
    <path d="M100 100 Q150 80 200 100" stroke="#B0E0E6" stroke-width="3" fill="none"/>
    <path d="M130 130 Q150 110 170 130" stroke="#B0E0E6" stroke-width="3" fill="none"/>
  </g>

  <!-- Ice Blocks (adjusted y-positions to align with the building) -->
  <g id="ice" opacity="0.8">
    <rect x="60" y="150" width="30" height="30" fill="#87CEFA" rx="5"/>
    <rect x="120" y="170" width="20" height="20" fill="#87CEFA" rx="3"/>
    <rect x="200" y="160" width="25" height="25" fill="#87CEFA" rx="4"/>
    <rect x="280" y="150" width="30" height="30" fill="#87CEFA" rx="5"/>
  </g>

  <!-- Snowflakes -->
  <g id="snowflakes" fill="#FFFFFF">
    <circle cx="50" cy="0" r="3"/>
    <circle cx="120" cy="10" r="2"/>
    <circle cx="200" cy="20" r="4"/>
    <circle cx="350" cy="40" r="3"/>
    <circle cx="280" cy="30" r="2"/>
  </g>
</svg>