<?xml version="1.0" encoding="UTF-8"?>
<svg width="500" height="400" viewBox="0 0 500 400" xmlns="http://www.w3.org/2000/svg">
  <!-- Cooler color palette with frosted effects -->
  <defs>
    <!-- Frost gradient -->
    <linearGradient id="frostGradient" x1="0%" y1="0%" x2="100%" y2="100%">
      <stop offset="0%" stop-color="#E0F2F1" stop-opacity="0.9"/>
      <stop offset="50%" stop-color="#B2DFDB" stop-opacity="0.7"/>
      <stop offset="100%" stop-color="#80CBC4" stop-opacity="0.8"/>
    </linearGradient>
    
    <!-- Ice crystal pattern -->
    <pattern id="icePattern" x="0" y="0" width="50" height="50" patternUnits="userSpaceOnUse">
      <path d="M25,0 L50,25 L25,50 L0,25 Z" fill="#E0F2F1" fill-opacity="0.3"/>
      <path d="M0,0 L50,0 L50,50 L0,50 Z" stroke="#B2DFDB" stroke-width="0.5" fill="none"/>
    </pattern>
    
    <!-- Frost filter -->
    <filter id="frostEffect" x="-20%" y="-20%" width="140%" height="140%">
      <feTurbulence type="fractalNoise" baseFrequency="0.05" numOctaves="3" result="noise"/>
      <feDisplacementMap in="SourceGraphic" in2="noise" scale="5" xChannelSelector="R" yChannelSelector="G"/>
      <feGaussianBlur stdDeviation="1.5" result="blur"/>
      <feComposite in="SourceGraphic" in2="blur" operator="arithmetic" k1="0.5" k2="0.5" k3="1" k4="0"/>
    </filter>
    
    <!-- Ice shine effect -->
    <filter id="iceShine">
      <feGaussianBlur in="SourceAlpha" stdDeviation="4" result="blur"/>
      <feSpecularLighting in="blur" specularExponent="20" specularConstant="1.5" surfaceScale="2" lighting-color="#ffffff" result="specular">
        <fePointLight x="250" y="100" z="300"/>
      </feSpecularLighting>
      <feComposite in="specular" in2="SourceAlpha" operator="in" result="specular"/>
      <feComposite in="SourceGraphic" in2="specular" operator="arithmetic" k1="0" k2="1" k3="1" k4="0"/>
    </filter>
  </defs>
  
  <!-- Modern Cold Storage Building Structure -->
  <g id="building" transform="translate(320, 250)" style="transform-origin: center; transform: scale(0.6);">
    <!-- Main warehouse structure -->
    <path d="M0,0 L500,0 L500,250 L0,250 Z" fill="#00796B" opacity="0.9"/>
    <path d="M0,0 L500,0 L500,20 L0,20 Z" fill="#009688"/>
    
    <!-- Frosted roof with modern design -->
    <path d="M0,0 L500,0 L450,-80 L50,-80 Z" fill="#00897B" filter="url(#frostEffect)"/>
    <path d="M50,-80 L450,-80 L450,-90 L50,-90 Z" fill="#4DB6AC"/>
    
    <!-- Front wall details -->
    <rect x="50" y="50" width="150" height="150" fill="#00796B" stroke="#80CBC4" stroke-width="2"/>
    <rect x="300" y="50" width="150" height="150" fill="#00796B" stroke="#80CBC4" stroke-width="2"/>
    
    <!-- Frosted panels -->
    <rect x="60" y="60" width="130" height="130" fill="url(#frostGradient)" opacity="0.7" filter="url(#frostEffect)"/>
    <rect x="310" y="60" width="130" height="130" fill="url(#frostGradient)" opacity="0.7" filter="url(#frostEffect)"/>
    
    <!-- Modern door -->
    <rect x="225" y="150" width="50" height="100" fill="#00695C" stroke="#80CBC4" stroke-width="1"/>
    <rect x="230" y="155" width="40" height="90" fill="#B2DFDB" opacity="0.5" filter="url(#frostEffect)"/>
    
    <!-- Temperature indicator -->
    <circle cx="250" cy="100" r="30" fill="#004D40" stroke="#E0F2F1" stroke-width="2"/>
    <circle cx="250" cy="100" r="25" fill="url(#frostGradient)" filter="url(#iceShine)"/>
    <path d="M250,85 L250,115 M240,100 L260,100" stroke="#E0F2F1" stroke-width="3" stroke-linecap="round"/>
    <path d="M250,90 L260,100 L250,110" fill="none" stroke="#E0F2F1" stroke-width="2" stroke-linecap="round" stroke-linejoin="round"/>
  </g>
  
  <!-- Decorative ice elements -->
  <g id="iceElements" transform="translate(200, 200)" style="transform-origin: center; transform: scale(0.6);">
    <!-- Large ice blocks -->
    <path d="M200,430 L280,430 L265,380 L215,380 Z" fill="#00838F" opacity="1.0" filter="url(#iceShine)" stroke="#004D40" stroke-width="1.5"/>
    <path d="M500,430 L580,430 L565,380 L515,380 Z" fill="#00838F" opacity="1.0" filter="url(#iceShine)" stroke="#004D40" stroke-width="1.5"/>
    
    <!-- Ice crystals -->
    <g filter="url(#frostEffect)">
      <path d="M150,150 L170,130 L190,150 L170,170 Z" fill="#006064" opacity="1.0" stroke="#004D40" stroke-width="1.5"/>
      <path d="M600,200 L620,180 L640,200 L620,220 Z" fill="#006064" opacity="1.0" stroke="#004D40" stroke-width="1.5"/>
      <path d="M100,300 L120,280 L140,300 L120,320 Z" fill="#006064" opacity="1.0" stroke="#004D40" stroke-width="1.5"/>
      <path d="M650,300 L670,280 L690,300 L670,320 Z" fill="#006064" opacity="1.0" stroke="#004D40" stroke-width="1.5"/>
    </g>
    
    <!-- Detailed frost patterns -->
    <g opacity="0.7">
      <path d="M350,150 L350,120 M340,140 L360,130 M340,130 L360,140" stroke="#00838F" stroke-width="2.5"/>
      <path d="M450,180 L450,150 M440,170 L460,160 M440,160 L460,170" stroke="#00838F" stroke-width="2.5"/>
      <path d="M250,110 L250,80 M240,100 L260,90 M240,90 L260,100" stroke="#00838F" stroke-width="2.5"/>
      <path d="M550,130 L550,100 M540,120 L560,110 M540,110 L560,120" stroke="#00838F" stroke-width="2.5"/>
    </g>
    
    <!-- Subtle snowflakes -->
    <g fill="none" stroke="#00838F" stroke-width="1.8" opacity="1.0">
      <path d="M200,200 L200,220 M190,210 L210,210 M193,203 L207,217 M193,217 L207,203" />
      <path d="M300,150 L300,170 M290,160 L310,160 M293,153 L307,167 M293,167 L307,153" />
      <path d="M400,100 L400,120 M390,110 L410,110 M393,103 L407,117 M393,117 L407,103" />
      <path d="M500,200 L500,220 M490,210 L510,210 M493,203 L507,217 M493,217 L507,203" />
      <path d="M600,150 L600,170 M590,160 L610,160 M593,153 L607,167 M593,167 L607,153" />
      <path d="M700,120 L700,140 M690,130 L710,130 M693,123 L707,137 M693,137 L707,123" />
    </g>
    
    <!-- Cold air misty effect -->
    <path d="M250,450 C270,430 290,470 310,450 C330,430 350,470 370,450 C390,430 410,470 430,450 C450,430 470,470 490,450" 
          stroke="#00838F" stroke-width="3.5" fill="none" opacity="0.9" filter="url(#frostEffect)"/>
    
    <path d="M180,480 C200,460 220,500 240,480 C260,460 280,500 300,480 C320,460 340,500 360,480 C380,460 400,500 420,480" 
          stroke="#00838F" stroke-width="2.5" fill="none" opacity="0.6" filter="url(#frostEffect)"/>
  </g>
  
</svg>




