<svg xmlns="http://www.w3.org/2000/svg" viewBox="0 0 400 300" width="400" height="300">
  <!-- Background (frosty blue gradient) -->
  <rect width="100%" height="100%" fill="url(#coldGradient)"/>
  <defs>
    <linearGradient id="coldGradient" x1="0%" y1="0%" x2="100%" y2="100%">
      <stop offset="0%" stop-color="#E6F7FF" />
      <stop offset="100%" stop-color="#B3E5FC" />
    </linearGradient>
  </defs>

  <!-- Building Structure -->
  <g id="building">
    <!-- Main structure -->
    <rect x="50" y="100" width="300" height="150" fill="#2C3E50" rx="10" ry="10"/>
    <!-- Cooling vents (top) -->
    <rect x="100" y="80" width="200" height="20" fill="#34495E" rx="5"/>
    <rect x="120" y="70" width="160" height="10" fill="#4A657D" rx="3"/>
    <!-- Frost accents -->
    <path d="M70 120 Q150 100 230 120" stroke="#B0E0E6" stroke-width="3" fill="none"/>
    <path d="M100 150 Q150 130 200 150" stroke="#B0E0E6" stroke-width="3" fill="none"/>
    <path d="M130 180 Q150 160 170 180" stroke="#B0E0E6" stroke-width="3" fill="none"/>
  </g>

  <!-- Ice Blocks -->
  <g id="ice" opacity="0.8">
    <rect x="60" y="200" width="30" height="30" fill="#87CEFA" rx="5"/>
    <rect x="120" y="220" width="20" height="20" fill="#87CEFA" rx="3"/>
    <rect x="200" y="210" width="25" height="25" fill="#87CEFA" rx="4"/>
    <rect x="280" y="200" width="30" height="30" fill="#87CEFA" rx="5"/>
  </g>

  <!-- Snowflakes -->
  <g id="snowflakes" fill="#FFFFFF">
    <circle cx="50" cy="50" r="3"/>
    <circle cx="120" cy="30" r="2"/>
    <circle cx="200" cy="40" r="4"/>
    <circle cx="350" cy="60" r="3"/>
    <circle cx="280" cy="20" r="2"/>
  </g>
</svg>