<svg xmlns="http://www.w3.org/2000/svg" viewBox="0 0 512 512" fill="none">
  <!-- Main container -->
  <rect x="100" y="120" width="312" height="272" rx="8" fill="#e5e7eb" stroke="#1e40af" stroke-width="4" />
  
  <!-- Shelves -->
  <rect x="120" y="160" width="272" height="60" rx="4" fill="#bfdbfe" stroke="#1e40af" stroke-width="2" />
  <rect x="120" y="240" width="272" height="60" rx="4" fill="#bfdbfe" stroke="#1e40af" stroke-width="2" />
  <rect x="120" y="320" width="272" height="60" rx="4" fill="#bfdbfe" stroke="#1e40af" stroke-width="2" />
  
  <!-- Items on shelves -->
  <!-- Top shelf -->
  <rect x="130" y="170" width="40" height="40" rx="2" fill="#3b82f6" />
  <rect x="180" y="170" width="40" height="40" rx="2" fill="#3b82f6" />
  <rect x="230" y="170" width="40" height="40" rx="2" fill="#3b82f6" />
  <rect x="280" y="170" width="40" height="40" rx="2" fill="#3b82f6" />
  <rect x="330" y="170" width="40" height="40" rx="2" fill="#3b82f6" />
  
  <!-- Middle shelf -->
  <rect x="130" y="250" width="40" height="40" rx="2" fill="#60a5fa" />
  <rect x="180" y="250" width="40" height="40" rx="2" fill="#60a5fa" />
  <rect x="230" y="250" width="40" height="40" rx="2" fill="#60a5fa" />
  <rect x="280" y="250" width="40" height="40" rx="2" fill="#60a5fa" />
  
  <!-- Bottom shelf -->
  <rect x="130" y="330" width="40" height="40" rx="2" fill="#93c5fd" />
  <rect x="180" y="330" width="40" height="40" rx="2" fill="#93c5fd" />
  <rect x="230" y="330" width="40" height="40" rx="2" fill="#93c5fd" />
  
  <!-- Clipboard/Inventory list -->
  <rect x="380" y="200" width="60" height="80" rx="4" fill="#f9fafb" stroke="#1e40af" stroke-width="2" />
  <line x1="390" y1="220" x2="430" y2="220" stroke="#1e40af" stroke-width="1" />
  <line x1="390" y1="240" x2="430" y2="240" stroke="#1e40af" stroke-width="1" />
  <line x1="390" y1="260" x2="430" y2="260" stroke="#1e40af" stroke-width="1" />
  
  <!-- Clipboard clip -->
  <rect x="400" y="190" width="20" height="10" rx="2" fill="#1e40af" />
</svg>